<mxfile host="app.diagrams.net" modified="2021-02-03T16:52:17.752Z" agent="5.0 (Macintosh; Intel Mac OS X 11_1_0) AppleWebKit/537.36 (KHTML, like Gecko) Chrome/87.0.4280.141 Safari/537.36" etag="Oy6FVpXjwITUpZbtILMZ" version="14.2.9" type="github">
  <diagram id="FsBnhK845jlbX4Msylgf" name="第 1 页">
    <mxGraphModel dx="1044" dy="1735" grid="1" gridSize="10" guides="1" tooltips="1" connect="1" arrows="1" fold="1" page="1" pageScale="1" pageWidth="827" pageHeight="1169" math="0" shadow="0">
      <root>
        <mxCell id="0" />
        <mxCell id="1" parent="0" />
        <mxCell id="9bFpNnPxpqLzh7gp7WBU-1" value="" style="edgeStyle=orthogonalEdgeStyle;rounded=0;orthogonalLoop=1;jettySize=auto;html=1;" edge="1" parent="1" source="9bFpNnPxpqLzh7gp7WBU-2" target="9bFpNnPxpqLzh7gp7WBU-6">
          <mxGeometry relative="1" as="geometry" />
        </mxCell>
        <mxCell id="9bFpNnPxpqLzh7gp7WBU-2" value="Polkadot" style="verticalLabelPosition=bottom;verticalAlign=top;html=1;shape=mxgraph.basic.polygon;polyCoords=[[0.25,0],[0.75,0],[1,0.25],[1,0.75],[0.75,1],[0.25,1],[0,0.75],[0,0.25]];polyline=0;fillColor=#f8cecc;strokeColor=#b85450;" vertex="1" parent="1">
          <mxGeometry x="120" y="350" width="100" height="100" as="geometry" />
        </mxCell>
        <mxCell id="9bFpNnPxpqLzh7gp7WBU-3" value="" style="edgeStyle=orthogonalEdgeStyle;rounded=0;orthogonalLoop=1;jettySize=auto;html=1;" edge="1" parent="1" source="9bFpNnPxpqLzh7gp7WBU-4" target="9bFpNnPxpqLzh7gp7WBU-6">
          <mxGeometry relative="1" as="geometry" />
        </mxCell>
        <mxCell id="9bFpNnPxpqLzh7gp7WBU-4" value="PlatON" style="verticalLabelPosition=bottom;verticalAlign=top;html=1;shape=mxgraph.basic.polygon;polyCoords=[[0.25,0],[0.75,0],[1,0.25],[1,0.75],[0.75,1],[0.25,1],[0,0.75],[0,0.25]];polyline=0;fillColor=#fff2cc;strokeColor=#d6b656;" vertex="1" parent="1">
          <mxGeometry x="620" y="350" width="100" height="100" as="geometry" />
        </mxCell>
        <mxCell id="9bFpNnPxpqLzh7gp7WBU-5" value="" style="rounded=0;orthogonalLoop=1;jettySize=auto;html=1;exitX=0.5;exitY=1;exitDx=0;exitDy=0;" edge="1" parent="1" source="9bFpNnPxpqLzh7gp7WBU-7" target="9bFpNnPxpqLzh7gp7WBU-11">
          <mxGeometry relative="1" as="geometry" />
        </mxCell>
        <mxCell id="9bFpNnPxpqLzh7gp7WBU-6" value="ChainBridge" style="shape=process;whiteSpace=wrap;html=1;backgroundOutline=1;fillColor=#e1d5e7;strokeColor=#9673a6;" vertex="1" parent="1">
          <mxGeometry x="230" y="350" width="380" height="100" as="geometry" />
        </mxCell>
        <mxCell id="9bFpNnPxpqLzh7gp7WBU-7" value="listener" style="text;html=1;strokeColor=none;fillColor=none;align=center;verticalAlign=middle;whiteSpace=wrap;rounded=0;" vertex="1" parent="1">
          <mxGeometry x="230" y="430" width="40" height="20" as="geometry" />
        </mxCell>
        <mxCell id="9bFpNnPxpqLzh7gp7WBU-8" value="listener" style="text;html=1;strokeColor=none;fillColor=none;align=center;verticalAlign=middle;whiteSpace=wrap;rounded=0;" vertex="1" parent="1">
          <mxGeometry x="570" y="430" width="40" height="20" as="geometry" />
        </mxCell>
        <mxCell id="9bFpNnPxpqLzh7gp7WBU-9" value="writer" style="text;html=1;strokeColor=none;fillColor=none;align=center;verticalAlign=middle;whiteSpace=wrap;rounded=0;" vertex="1" parent="1">
          <mxGeometry x="230" y="350" width="40" height="20" as="geometry" />
        </mxCell>
        <mxCell id="9bFpNnPxpqLzh7gp7WBU-10" value="writer" style="text;html=1;strokeColor=none;fillColor=none;align=center;verticalAlign=middle;whiteSpace=wrap;rounded=0;" vertex="1" parent="1">
          <mxGeometry x="570" y="350" width="40" height="20" as="geometry" />
        </mxCell>
        <mxCell id="9bFpNnPxpqLzh7gp7WBU-39" value="" style="edgeStyle=orthogonalEdgeStyle;rounded=0;orthogonalLoop=1;jettySize=auto;html=1;exitX=0.5;exitY=0;exitDx=0;exitDy=0;" edge="1" parent="1" source="9bFpNnPxpqLzh7gp7WBU-70" target="9bFpNnPxpqLzh7gp7WBU-32">
          <mxGeometry relative="1" as="geometry">
            <mxPoint x="250" y="120" as="sourcePoint" />
          </mxGeometry>
        </mxCell>
        <mxCell id="9bFpNnPxpqLzh7gp7WBU-11" value="contract" style="ellipse;shape=cloud;whiteSpace=wrap;html=1;strokeColor=#9673a6;fillColor=#e1d5e7;" vertex="1" parent="1">
          <mxGeometry x="190" y="240" width="120" height="80" as="geometry" />
        </mxCell>
        <mxCell id="9bFpNnPxpqLzh7gp7WBU-12" value="contract" style="ellipse;shape=cloud;whiteSpace=wrap;html=1;strokeColor=#9673a6;fillColor=#e1d5e7;" vertex="1" parent="1">
          <mxGeometry x="530" y="240" width="120" height="80" as="geometry" />
        </mxCell>
        <mxCell id="9bFpNnPxpqLzh7gp7WBU-13" value="" style="rounded=0;orthogonalLoop=1;jettySize=auto;html=1;entryX=0.492;entryY=0.95;entryDx=0;entryDy=0;entryPerimeter=0;" edge="1" parent="1" target="9bFpNnPxpqLzh7gp7WBU-12">
          <mxGeometry relative="1" as="geometry">
            <mxPoint x="589" y="350" as="sourcePoint" />
            <mxPoint x="589.5" y="260" as="targetPoint" />
          </mxGeometry>
        </mxCell>
        <mxCell id="9bFpNnPxpqLzh7gp7WBU-14" style="edgeStyle=none;rounded=0;orthogonalLoop=1;jettySize=auto;html=1;exitX=0.5;exitY=0;exitDx=0;exitDy=0;exitPerimeter=0;entryX=0.5;entryY=1;entryDx=0;entryDy=0;entryPerimeter=0;" edge="1" parent="1" target="9bFpNnPxpqLzh7gp7WBU-34">
          <mxGeometry relative="1" as="geometry">
            <mxPoint x="250" as="targetPoint" />
            <mxPoint x="265" y="40" as="sourcePoint" />
          </mxGeometry>
        </mxCell>
        <mxCell id="9bFpNnPxpqLzh7gp7WBU-17" style="edgeStyle=none;rounded=0;orthogonalLoop=1;jettySize=auto;html=1;exitX=0.5;exitY=0;exitDx=0;exitDy=0;exitPerimeter=0;entryX=0.5;entryY=1;entryDx=0;entryDy=0;entryPerimeter=0;" edge="1" parent="1" target="9bFpNnPxpqLzh7gp7WBU-34">
          <mxGeometry relative="1" as="geometry">
            <mxPoint x="398" y="60" as="sourcePoint" />
          </mxGeometry>
        </mxCell>
        <mxCell id="9bFpNnPxpqLzh7gp7WBU-20" style="edgeStyle=none;rounded=0;orthogonalLoop=1;jettySize=auto;html=1;exitX=0.5;exitY=0;exitDx=0;exitDy=0;exitPerimeter=0;entryX=0.5;entryY=1;entryDx=0;entryDy=0;entryPerimeter=0;" edge="1" parent="1" target="9bFpNnPxpqLzh7gp7WBU-34">
          <mxGeometry relative="1" as="geometry">
            <mxPoint x="145" y="60" as="sourcePoint" />
          </mxGeometry>
        </mxCell>
        <mxCell id="9bFpNnPxpqLzh7gp7WBU-24" value="Bob" style="shape=umlActor;verticalLabelPosition=bottom;verticalAlign=top;html=1;outlineConnect=0;fillColor=#dae8fc;strokeColor=#6c8ebf;" vertex="1" parent="1">
          <mxGeometry x="590" y="150" width="30" height="60" as="geometry" />
        </mxCell>
        <mxCell id="9bFpNnPxpqLzh7gp7WBU-25" style="edgeStyle=none;rounded=0;orthogonalLoop=1;jettySize=auto;html=1;exitX=0.5;exitY=0;exitDx=0;exitDy=0;exitPerimeter=0;entryX=0.5;entryY=1;entryDx=0;entryDy=0;entryPerimeter=0;" edge="1" parent="1" source="9bFpNnPxpqLzh7gp7WBU-26" target="9bFpNnPxpqLzh7gp7WBU-37">
          <mxGeometry relative="1" as="geometry" />
        </mxCell>
        <mxCell id="9bFpNnPxpqLzh7gp7WBU-26" value="Charlie" style="shape=umlActor;verticalLabelPosition=bottom;verticalAlign=top;html=1;outlineConnect=0;fillColor=#dae8fc;strokeColor=#6c8ebf;" vertex="1" parent="1">
          <mxGeometry x="720" y="170" width="30" height="60" as="geometry" />
        </mxCell>
        <mxCell id="9bFpNnPxpqLzh7gp7WBU-27" style="edgeStyle=none;rounded=0;orthogonalLoop=1;jettySize=auto;html=1;exitX=0.5;exitY=0;exitDx=0;exitDy=0;exitPerimeter=0;entryX=0.5;entryY=1;entryDx=0;entryDy=0;entryPerimeter=0;" edge="1" parent="1" source="9bFpNnPxpqLzh7gp7WBU-28" target="9bFpNnPxpqLzh7gp7WBU-37">
          <mxGeometry relative="1" as="geometry" />
        </mxCell>
        <mxCell id="9bFpNnPxpqLzh7gp7WBU-28" value="Alice" style="shape=umlActor;verticalLabelPosition=bottom;verticalAlign=top;html=1;outlineConnect=0;fillColor=#dae8fc;strokeColor=#6c8ebf;" vertex="1" parent="1">
          <mxGeometry x="480" y="170" width="30" height="60" as="geometry" />
        </mxCell>
        <mxCell id="9bFpNnPxpqLzh7gp7WBU-29" value="" style="endArrow=classic;html=1;exitX=0.25;exitY=0.25;exitDx=0;exitDy=0;exitPerimeter=0;entryX=0.5;entryY=0.5;entryDx=0;entryDy=0;entryPerimeter=0;" edge="1" parent="1" source="9bFpNnPxpqLzh7gp7WBU-12" target="9bFpNnPxpqLzh7gp7WBU-28">
          <mxGeometry width="50" height="50" relative="1" as="geometry">
            <mxPoint x="583" y="180" as="sourcePoint" />
            <mxPoint x="490" y="82" as="targetPoint" />
          </mxGeometry>
        </mxCell>
        <mxCell id="9bFpNnPxpqLzh7gp7WBU-30" value="" style="endArrow=classic;html=1;entryX=0.5;entryY=0.5;entryDx=0;entryDy=0;entryPerimeter=0;exitX=0.625;exitY=0.2;exitDx=0;exitDy=0;exitPerimeter=0;" edge="1" parent="1" source="9bFpNnPxpqLzh7gp7WBU-12" target="9bFpNnPxpqLzh7gp7WBU-24">
          <mxGeometry width="50" height="50" relative="1" as="geometry">
            <mxPoint x="685" y="170" as="sourcePoint" />
            <mxPoint x="620" y="40" as="targetPoint" />
          </mxGeometry>
        </mxCell>
        <mxCell id="9bFpNnPxpqLzh7gp7WBU-31" value="" style="endArrow=classic;html=1;exitX=0.875;exitY=0.5;exitDx=0;exitDy=0;exitPerimeter=0;entryX=0.5;entryY=0.5;entryDx=0;entryDy=0;entryPerimeter=0;" edge="1" parent="1" source="9bFpNnPxpqLzh7gp7WBU-12" target="9bFpNnPxpqLzh7gp7WBU-26">
          <mxGeometry width="50" height="50" relative="1" as="geometry">
            <mxPoint x="660" y="180" as="sourcePoint" />
            <mxPoint x="710" y="130" as="targetPoint" />
          </mxGeometry>
        </mxCell>
        <mxCell id="9bFpNnPxpqLzh7gp7WBU-32" value="" style="rhombus;whiteSpace=wrap;html=1;strokeWidth=2;fillWeight=-1;hachureGap=8;fillStyle=cross-hatch;fillColor=#006600;sketch=1;" vertex="1" parent="1">
          <mxGeometry x="190" y="-50" width="120" height="90" as="geometry" />
        </mxCell>
        <mxCell id="9bFpNnPxpqLzh7gp7WBU-35" value="" style="rhombus;whiteSpace=wrap;html=1;strokeWidth=2;fillWeight=-1;hachureGap=8;fillStyle=cross-hatch;fillColor=#006600;sketch=1;" vertex="1" parent="1">
          <mxGeometry x="545" y="-60" width="120" height="90" as="geometry" />
        </mxCell>
        <mxCell id="9bFpNnPxpqLzh7gp7WBU-36" value="" style="edgeStyle=none;rounded=0;orthogonalLoop=1;jettySize=auto;html=1;" edge="1" parent="1" source="9bFpNnPxpqLzh7gp7WBU-37" target="9bFpNnPxpqLzh7gp7WBU-35">
          <mxGeometry relative="1" as="geometry" />
        </mxCell>
        <mxCell id="9bFpNnPxpqLzh7gp7WBU-37" value="2/3" style="strokeWidth=2;html=1;shape=mxgraph.flowchart.decision;whiteSpace=wrap;" vertex="1" parent="1">
          <mxGeometry x="590" y="70" width="30" height="40" as="geometry" />
        </mxCell>
        <mxCell id="9bFpNnPxpqLzh7gp7WBU-41" style="edgeStyle=none;rounded=0;orthogonalLoop=1;jettySize=auto;html=1;exitX=0.5;exitY=0;exitDx=0;exitDy=0;exitPerimeter=0;" edge="1" parent="1" source="9bFpNnPxpqLzh7gp7WBU-24" target="9bFpNnPxpqLzh7gp7WBU-37">
          <mxGeometry relative="1" as="geometry">
            <mxPoint x="604.9411764705883" as="targetPoint" />
            <mxPoint x="605" y="150" as="sourcePoint" />
          </mxGeometry>
        </mxCell>
        <mxCell id="9bFpNnPxpqLzh7gp7WBU-42" value="" style="endArrow=none;dashed=1;html=1;dashPattern=1 3;strokeWidth=2;entryX=0.5;entryY=0;entryDx=0;entryDy=0;exitX=0.5;exitY=1;exitDx=0;exitDy=0;" edge="1" parent="1" source="9bFpNnPxpqLzh7gp7WBU-32" target="9bFpNnPxpqLzh7gp7WBU-10">
          <mxGeometry width="50" height="50" relative="1" as="geometry">
            <mxPoint x="310" y="180" as="sourcePoint" />
            <mxPoint x="360" y="130" as="targetPoint" />
          </mxGeometry>
        </mxCell>
        <mxCell id="9bFpNnPxpqLzh7gp7WBU-46" value="msg" style="edgeLabel;html=1;align=center;verticalAlign=middle;resizable=0;points=[];" vertex="1" connectable="0" parent="9bFpNnPxpqLzh7gp7WBU-42">
          <mxGeometry x="-0.188" y="-2" relative="1" as="geometry">
            <mxPoint x="13.16" y="12.53" as="offset" />
          </mxGeometry>
        </mxCell>
        <mxCell id="9bFpNnPxpqLzh7gp7WBU-43" value="handlerAddress" style="text;html=1;strokeColor=none;fillColor=none;align=center;verticalAlign=middle;whiteSpace=wrap;rounded=0;" vertex="1" parent="1">
          <mxGeometry x="230" y="-80" width="40" height="20" as="geometry" />
        </mxCell>
        <mxCell id="9bFpNnPxpqLzh7gp7WBU-44" value="BridgeAddress" style="text;html=1;strokeColor=none;fillColor=none;align=center;verticalAlign=middle;whiteSpace=wrap;rounded=0;" vertex="1" parent="1">
          <mxGeometry x="585" y="-80" width="40" height="20" as="geometry" />
        </mxCell>
        <mxCell id="9bFpNnPxpqLzh7gp7WBU-48" style="edgeStyle=orthogonalEdgeStyle;rounded=0;orthogonalLoop=1;jettySize=auto;html=1;exitX=0;exitY=0.5;exitDx=0;exitDy=0;exitPerimeter=0;entryX=1;entryY=0.5;entryDx=0;entryDy=0;" edge="1" parent="1" source="9bFpNnPxpqLzh7gp7WBU-47" target="9bFpNnPxpqLzh7gp7WBU-35">
          <mxGeometry relative="1" as="geometry" />
        </mxCell>
        <mxCell id="9bFpNnPxpqLzh7gp7WBU-49" style="edgeStyle=orthogonalEdgeStyle;rounded=0;orthogonalLoop=1;jettySize=auto;html=1;exitX=1;exitY=0.5;exitDx=0;exitDy=0;exitPerimeter=0;entryX=0.99;entryY=0.55;entryDx=0;entryDy=0;entryPerimeter=0;" edge="1" parent="1" source="9bFpNnPxpqLzh7gp7WBU-47" target="9bFpNnPxpqLzh7gp7WBU-4">
          <mxGeometry relative="1" as="geometry" />
        </mxCell>
        <mxCell id="9bFpNnPxpqLzh7gp7WBU-47" value="" style="verticalLabelPosition=bottom;verticalAlign=top;html=1;shape=mxgraph.flowchart.parallel_mode;pointerEvents=1;rotation=90;" vertex="1" parent="1">
          <mxGeometry x="820" y="190" width="95" height="40" as="geometry" />
        </mxCell>
        <mxCell id="9bFpNnPxpqLzh7gp7WBU-74" style="edgeStyle=orthogonalEdgeStyle;rounded=0;orthogonalLoop=1;jettySize=auto;html=1;exitX=1;exitY=0.5;exitDx=0;exitDy=0;exitPerimeter=0;" edge="1" parent="1" source="9bFpNnPxpqLzh7gp7WBU-50">
          <mxGeometry relative="1" as="geometry">
            <mxPoint x="250" y="80" as="targetPoint" />
            <Array as="points">
              <mxPoint x="88" y="80" />
            </Array>
          </mxGeometry>
        </mxCell>
        <mxCell id="9bFpNnPxpqLzh7gp7WBU-50" value="" style="verticalLabelPosition=bottom;verticalAlign=top;html=1;shape=mxgraph.flowchart.parallel_mode;pointerEvents=1;rotation=-90;" vertex="1" parent="1">
          <mxGeometry x="40" y="220" width="95" height="40" as="geometry" />
        </mxCell>
        <mxCell id="9bFpNnPxpqLzh7gp7WBU-52" value="" style="endArrow=classic;html=1;entryX=0;entryY=0.5;entryDx=0;entryDy=0;entryPerimeter=0;exitX=-0.02;exitY=0.53;exitDx=0;exitDy=0;exitPerimeter=0;edgeStyle=orthogonalEdgeStyle;" edge="1" parent="1" source="9bFpNnPxpqLzh7gp7WBU-2" target="9bFpNnPxpqLzh7gp7WBU-50">
          <mxGeometry width="50" height="50" relative="1" as="geometry">
            <mxPoint x="390" y="200" as="sourcePoint" />
            <mxPoint x="440" y="150" as="targetPoint" />
          </mxGeometry>
        </mxCell>
        <mxCell id="9bFpNnPxpqLzh7gp7WBU-55" value="" style="edgeStyle=orthogonalEdgeStyle;rounded=0;orthogonalLoop=1;jettySize=auto;html=1;entryX=0.5;entryY=1;entryDx=0;entryDy=0;entryPerimeter=0;" edge="1" parent="1" source="9bFpNnPxpqLzh7gp7WBU-11" target="9bFpNnPxpqLzh7gp7WBU-73">
          <mxGeometry relative="1" as="geometry">
            <mxPoint x="250" y="240" as="sourcePoint" />
            <mxPoint x="250" y="220" as="targetPoint" />
          </mxGeometry>
        </mxCell>
        <mxCell id="9bFpNnPxpqLzh7gp7WBU-70" value="Handler" style="swimlane;fontStyle=0;childLayout=stackLayout;horizontal=1;startSize=26;fillColor=none;horizontalStack=0;resizeParent=1;resizeParentMax=0;resizeLast=0;collapsible=1;marginBottom=0;" vertex="1" parent="1">
          <mxGeometry x="180" y="110" width="140" height="104" as="geometry" />
        </mxCell>
        <mxCell id="9bFpNnPxpqLzh7gp7WBU-71" value="ERC20" style="text;strokeColor=none;fillColor=none;align=left;verticalAlign=top;spacingLeft=4;spacingRight=4;overflow=hidden;rotatable=0;points=[[0,0.5],[1,0.5]];portConstraint=eastwest;" vertex="1" parent="9bFpNnPxpqLzh7gp7WBU-70">
          <mxGeometry y="26" width="140" height="26" as="geometry" />
        </mxCell>
        <mxCell id="9bFpNnPxpqLzh7gp7WBU-72" value="ERC721" style="text;strokeColor=none;fillColor=none;align=left;verticalAlign=top;spacingLeft=4;spacingRight=4;overflow=hidden;rotatable=0;points=[[0,0.5],[1,0.5]];portConstraint=eastwest;" vertex="1" parent="9bFpNnPxpqLzh7gp7WBU-70">
          <mxGeometry y="52" width="140" height="26" as="geometry" />
        </mxCell>
        <mxCell id="9bFpNnPxpqLzh7gp7WBU-73" value="Generic" style="text;strokeColor=none;fillColor=none;align=left;verticalAlign=top;spacingLeft=4;spacingRight=4;overflow=hidden;rotatable=0;points=[[0,0.5],[1,0.5]];portConstraint=eastwest;" vertex="1" parent="9bFpNnPxpqLzh7gp7WBU-70">
          <mxGeometry y="78" width="140" height="26" as="geometry" />
        </mxCell>
        <mxCell id="9bFpNnPxpqLzh7gp7WBU-76" value="dot" style="text;html=1;strokeColor=none;fillColor=none;align=center;verticalAlign=middle;whiteSpace=wrap;rounded=0;" vertex="1" parent="1">
          <mxGeometry x="20" y="230" width="40" height="20" as="geometry" />
        </mxCell>
        <mxCell id="9bFpNnPxpqLzh7gp7WBU-78" value="Pdot" style="text;html=1;strokeColor=none;fillColor=none;align=center;verticalAlign=middle;whiteSpace=wrap;rounded=0;" vertex="1" parent="1">
          <mxGeometry x="890" y="200" width="40" height="20" as="geometry" />
        </mxCell>
      </root>
    </mxGraphModel>
  </diagram>
</mxfile>
